<svg version="1.1" xmlns="http://www.w3.org/2000/svg" xmlns:xlink="http://www.w3.org/1999/xlink" width="500" height="500"><g data-paper-data="{&quot;description&quot;:&quot;Logo for Special Moment\n=======================\n\nThis logo was generated by MarkMaker at http://emblemmatic.org/markmaker/ and may be composed of elements designed by others.\n\nThe font is Sedan SC designed by Sebastian Salazar and released under the OFL license via Google Fonts: https://www.google.com/fonts/specimen/Sedan%20SC. The font includes this copyright statement: Copyright (c) 2012, Sebastian Salazar (sebotas26@hotmail.com), with Reserved Font Name 'Sedan'\n\nMarkMaker uses semantic data from the Princeton University WordNet database http://wordnet.princeton.edu and font descriptions from Google Fonts https://www.google.com/fonts.&quot;}" fill="#444325" fill-rule="nonzero" stroke="none" stroke-width="1" stroke-linecap="butt" stroke-linejoin="miter" stroke-miterlimit="10" stroke-dasharray="" stroke-dashoffset="0" font-family="none" font-weight="none" font-size="none" text-anchor="none" style="mix-blend-mode: normal"><g data-paper-data="{&quot;elementType&quot;:&quot;logo&quot;}"><g data-paper-data="{&quot;elementType&quot;:&quot;text&quot;}"><g data-paper-data="{&quot;baseline&quot;:70.60000000000001}"><g data-paper-data="{&quot;baselineProportion&quot;:0.9605442176870748,&quot;fontSize&quot;:100,&quot;baseline&quot;:70.60000000000001,&quot;elementType&quot;:&quot;word&quot;}"><path d="M118.65734,225.1322c0,0 0,1.16239 0,3.48716c0,2.32477 -1.97675,4.921 -5.93026,7.78868c-3.9535,2.86768 -8.32463,4.30152 -13.11338,4.30152c-4.78875,0 -9.02067,-0.83525 -12.69576,-2.50574l0.6682,1.67049c0.16705,0.3341 0.04176,0.65428 -0.37586,0.96053c-0.41762,0.30626 -0.87701,0.45939 -1.37816,0.45939c-0.50115,0 -0.83525,-0.13921 -1.0023,-0.41762c-1.78186,-4.51034 -2.86768,-9.74455 -3.25747,-15.70265c0,-0.55683 0.44547,-0.83525 1.3364,-0.83525c0.89093,0 1.36424,0.19489 1.41992,0.58467c1.22503,4.23192 3.70293,7.62859 7.4337,10.19002c2.28301,1.61481 4.94188,2.42222 7.97661,2.42222c3.03473,0 5.48479,-0.87701 7.35018,-2.63103c1.86539,-1.75402 2.79808,-3.86998 2.79808,-6.34788c0,-2.4779 -0.64036,-4.70523 -1.92107,-6.68198c-1.28071,-1.97675 -2.86768,-3.57764 -4.76091,-4.80267c-1.89323,-1.22503 -3.9535,-2.51966 -6.18083,-3.8839c-2.22733,-1.36424 -4.2876,-2.67279 -6.18083,-3.92566c-1.89323,-1.25287 -3.4802,-2.93729 -4.76091,-5.05325c-1.28071,-2.11596 -1.92107,-4.51034 -1.92107,-7.18313c0,-4.06487 1.82362,-7.50331 5.47087,-10.31531c3.64725,-2.812 8.22719,-4.218 13.73982,-4.218c2.50574,0 4.84444,0.3341 7.01608,1.0023l1.0023,0.25057c-0.22273,-0.89093 -0.34802,-1.50345 -0.37586,-1.83754c-0.02784,-0.3341 0.08352,-0.57075 0.3341,-0.70996c0.25057,-0.13921 0.64036,-0.20881 1.16935,-0.20881c0.52899,0 0.87701,0.22273 1.04406,0.6682c1.28071,4.51034 2.03244,8.93715 2.25517,13.28043c-0.16705,0.3341 -0.62644,0.50115 -1.37816,0.50115c-0.75172,0 -1.21111,-0.08352 -1.37816,-0.25057c-0.61251,-2.28301 -1.4756,-4.16232 -2.58927,-5.63792c-1.11366,-1.4756 -2.33869,-2.49182 -3.67509,-3.04865c-1.3364,-0.55683 -2.89552,-0.83525 -4.67739,-0.83525c-3.45236,0 -5.91634,0.87701 -7.39194,2.63103c-1.4756,1.75402 -2.21341,3.67509 -2.21341,5.76321c0,2.08812 0.48723,3.86998 1.46168,5.34558c0.97446,1.4756 2.22733,2.75632 3.75861,3.84214c1.53129,1.08582 3.2157,2.1438 5.05325,3.17394c1.83754,1.03014 3.68901,2.12988 5.5544,3.29923c1.86539,1.16935 3.57764,2.45006 5.13677,3.84214c3.45236,3.06257 5.17853,6.91863 5.17853,11.56818z" data-paper-data="{&quot;elementType&quot;:&quot;letter&quot;,&quot;baseline&quot;:70.2,&quot;baselineProportion&quot;:0.9722991689750693,&quot;fontSize&quot;:100}"></path><path d="M128.01211,183.41159l10.52412,0.16705h9.60535c7.35018,0 12.87673,1.41992 16.57966,4.25976c3.70293,2.83984 5.5544,6.30612 5.5544,10.39883c0,4.09271 -1.69834,7.73996 -5.09501,10.94174c-3.39667,3.20178 -7.73996,4.80267 -13.02986,4.80267c-2.89552,0 -5.87457,-0.6682 -8.93715,-2.00459v17.5402c0,4.90012 0.58467,7.35018 1.75402,7.35018h4.84444c0.55683,0 0.83525,0.45939 0.83525,1.37816c0,0.91877 -0.27842,1.37816 -0.83525,1.37816h-3.59156l-3.59156,-0.08352h-3.34099l-11.69346,0.25057c-0.44547,0 -0.6682,-0.47331 -0.6682,-1.41992c0,-0.94661 0.22273,-1.41992 0.6682,-1.41992h3.59156c1.39208,0 2.31085,-0.2645 2.75632,-0.79349c0.44547,-0.52899 0.6682,-1.54521 0.6682,-3.04865v-39.59073c0,-4.90012 -0.58467,-7.35018 -1.75402,-7.35018h-4.84444c-0.44547,0 -0.6682,-0.45939 -0.6682,-1.37816c0,-0.91877 0.22273,-1.37816 0.6682,-1.37816M147.64043,209.80541c4.2876,0 7.62859,-1.05798 10.02297,-3.17394c2.39438,-2.11596 3.59156,-4.74699 3.59156,-7.89309c0,-3.1461 -1.29463,-5.90242 -3.8839,-8.26895c-2.58927,-2.36653 -6.30612,-3.5498 -11.15055,-3.5498c-1.05798,0 -1.82362,0.27842 -2.29693,0.83525c-0.47331,0.55683 -0.70996,1.55913 -0.70996,3.00689v18.54249c1.50345,0.3341 2.97905,0.50115 4.42681,0.50115z" data-paper-data="{&quot;elementType&quot;:&quot;letter&quot;,&quot;baseline&quot;:67.3,&quot;baselineProportion&quot;:0.9970370370370369,&quot;fontSize&quot;:100}"></path><path d="M177.87638,183.41159l10.52412,0.16705h24.22218v-1.75402c0,-0.50115 0.4037,-0.75172 1.21111,-0.75172c0.80741,0 1.21111,0.25057 1.21111,0.75172c0,5.56832 0.27842,9.80024 0.83525,12.69576c0.11137,0.44547 -0.27842,0.6682 -1.16935,0.6682c-0.89093,0 -1.39208,-0.22273 -1.50345,-0.6682c-0.89093,-3.50804 -1.94891,-5.54047 -3.17394,-6.09731c-2.95121,-1.11366 -7.68428,-1.69834 -14.19921,-1.75402c-1.11366,0.05568 -1.85147,0.36194 -2.21341,0.91877c-0.36194,0.55683 -0.54291,1.53129 -0.54291,2.92337v19.71184c3.45236,-0.05568 6.82119,-0.22273 10.10649,-0.50115c3.28531,-0.27842 5.06717,-0.50115 5.34558,-0.6682l0.83525,-4.92796c0.05568,-0.38978 0.38978,-0.58467 1.0023,-0.58467c1.16935,0 1.69834,0.25057 1.58697,0.75172c-0.27842,2.17164 -0.41762,4.6217 -0.41762,7.35018c0,2.72847 0.13921,5.17853 0.41762,7.35018c0.11137,0.44547 -0.29234,0.6682 -1.21111,0.6682c-0.91877,0 -1.37816,-0.16705 -1.37816,-0.50115l-0.91877,-5.01148c-0.3341,-0.16705 -2.10204,-0.4037 -5.30382,-0.70996c-3.20178,-0.30626 -6.55669,-0.48723 -10.06473,-0.54291v16.03675c0,4.90012 0.58467,7.35018 1.75402,7.35018h4.25976c8.63089,-0.11137 14.53331,-1.28071 17.70725,-3.50804l0.58467,-4.59386c0.11137,-0.44547 0.59859,-0.6682 1.46168,-0.6682c0.86309,0 1.29463,0.16705 1.29463,0.50115l-0.75172,13.44748c0,0.38978 -0.43154,0.58467 -1.29463,0.58467c-0.86309,0 -1.29463,-0.19489 -1.29463,-0.58467v-1.83754h-20.63061l-18.70954,0.16705c-0.44547,0 -0.6682,-0.47331 -0.6682,-1.41992c0,-0.94661 0.22273,-1.41992 0.6682,-1.41992h3.59156c1.39208,0 2.31085,-0.2645 2.75632,-0.79349c0.44547,-0.52899 0.6682,-1.54521 0.6682,-3.04865v-39.59073c0,-4.90012 -0.58467,-7.35018 -1.75402,-7.35018h-4.84444c-0.44547,0 -0.6682,-0.45939 -0.6682,-1.37816c0,-0.91877 0.22273,-1.37816 0.6682,-1.37816z" data-paper-data="{&quot;elementType&quot;:&quot;letter&quot;,&quot;baseline&quot;:70.10000000000001,&quot;baselineProportion&quot;:0.9602739726027396,&quot;fontSize&quot;:100}"></path><path d="M277.60493,228.0138c0.11137,-0.61251 0.59859,-0.91877 1.46168,-0.91877c0.86309,0 1.29463,0.25057 1.29463,0.75172l-0.6682,11.60994c0,0.44547 -0.43154,0.6682 -1.29463,0.6682c-0.86309,0 -1.29463,-0.22273 -1.29463,-0.6682v-2.00459c-5.45695,2.17164 -10.80253,3.25747 -16.03675,3.25747c-9.5775,0 -17.5402,-2.4083 -23.88808,-7.22489c-6.34788,-4.81659 -9.52182,-11.48465 -9.52182,-20.00418c0,-6.40356 1.67049,-12.01364 5.01148,-16.83024c3.34099,-4.81659 7.57291,-8.38032 12.69576,-10.69117c5.12285,-2.31085 10.37099,-3.46628 15.74441,-3.46628c5.37343,0 10.1761,1.08582 14.40802,3.25747v-1.92107c0,-0.50115 0.4037,-0.75172 1.21111,-0.75172c0.80741,0 1.21111,0.25057 1.21111,0.75172c0,4.51034 0.27842,8.63089 0.83525,12.36166c0.11137,0.55683 -0.30626,0.83525 -1.25287,0.83525c-0.94661,0 -1.44776,-0.27842 -1.50345,-0.83525l-0.6682,-3.92566c-4.34329,-4.00919 -9.53574,-6.01378 -15.57736,-6.01378c-6.04162,0 -11.17839,2.21341 -15.41032,6.64022c-4.23192,4.42681 -6.34788,10.69117 -6.34788,18.79307c0,8.1019 2.24125,14.33841 6.72374,18.70954c4.48249,4.37113 10.09257,6.55669 16.83024,6.55669c5.45695,0 10.63548,-1.67049 15.5356,-5.01148z" data-paper-data="{&quot;elementType&quot;:&quot;letter&quot;,&quot;baseline&quot;:68.4,&quot;baselineProportion&quot;:0.981348637015782,&quot;fontSize&quot;:100}"></path><path d="M300.40718,183.49511l11.69346,-0.25057c0.44547,0 0.6682,0.47331 0.6682,1.41992c0,0.94661 -0.22273,1.41992 -0.6682,1.41992h-3.59156c-1.39208,0 -2.31085,0.2645 -2.75632,0.79349c-0.44547,0.52899 -0.6682,1.54521 -0.6682,3.04865v39.59073c0,4.90012 0.58467,7.35018 1.75402,7.35018h4.84444c0.44547,0 0.6682,0.45939 0.6682,1.37816c0,0.91877 -0.22273,1.37816 -0.6682,1.37816l-10.52412,-0.08352l-11.69346,0.25057c-0.44547,0 -0.6682,-0.47331 -0.6682,-1.41992c0,-0.94661 0.22273,-1.41992 0.6682,-1.41992h3.59156c1.39208,0 2.31085,-0.2645 2.75632,-0.79349c0.44547,-0.52899 0.6682,-1.54521 0.6682,-3.04865v-39.59073c0,-4.90012 -0.58467,-7.35018 -1.75402,-7.35018h-4.84444c-0.44547,0 -0.6682,-0.45939 -0.6682,-1.37816c0,-0.91877 0.22273,-1.37816 0.6682,-1.37816z" data-paper-data="{&quot;elementType&quot;:&quot;letter&quot;,&quot;baseline&quot;:67.5,&quot;baselineProportion&quot;:0.9970457902511077,&quot;fontSize&quot;:100}"></path><path d="M361.12967,239.54022l-10.60764,0.25057c-0.50115,0 -0.75172,-0.47331 -0.75172,-1.41992c0,-0.94661 0.25057,-1.41992 0.75172,-1.41992h4.76091c1.16935,0 1.75402,-0.47331 1.75402,-1.41992c0,-0.38978 -1.05798,-3.71685 -3.17394,-9.98121c-2.11596,-6.26436 -3.42451,-10.1761 -3.92566,-11.73523h-15.11798c-3.9535,12.58439 -5.93026,19.85105 -5.93026,21.79996c0,0.83525 0.16705,1.25287 0.50115,1.25287h6.01378c0.61251,0 0.91877,0.45939 0.91877,1.37816c0,0.91877 -0.36194,1.37816 -1.08582,1.37816l-10.77469,-0.08352l-9.27125,0.25057c-0.50115,0 -0.75172,-0.47331 -0.75172,-1.41992c0,-0.94661 0.25057,-1.41992 0.75172,-1.41992h4.17624c1.22503,0 2.1438,-0.61251 2.75632,-1.83754c2.33869,-5.06717 5.30382,-12.61224 8.89539,-22.63521c3.59156,-10.02297 6.04162,-16.66319 7.35018,-19.92065c1.30855,-3.25747 1.96283,-5.06717 1.96283,-5.42911c0,-0.36194 -0.11137,-0.76564 -0.3341,-1.21111c-0.22273,-0.44547 -0.3341,-0.72388 -0.3341,-0.83525c0,-0.44547 0.4037,-0.6682 1.21111,-0.6682c0.80741,0 1.55913,-0.19489 2.25517,-0.58467c0.69604,-0.38978 1.15543,-0.83525 1.37816,-1.3364c0.61251,-1.22503 1.16935,-1.83754 1.67049,-1.83754c0.22273,0 0.61251,0.83525 1.16935,2.50574l16.78847,45.35394c2.11596,5.56832 3.59156,8.35247 4.42681,8.35247h3.00689c0.55683,0 0.83525,0.45939 0.83525,1.37816c0,0.91877 -0.22273,1.37816 -0.6682,1.37816l-10.60764,-0.08352M342.42013,192.09816c-1.72618,4.45465 -3.89782,10.5798 -6.51493,18.37544h12.86281c-3.73077,-11.30368 -5.73537,-17.42883 -6.01378,-18.37544z" data-paper-data="{&quot;elementType&quot;:&quot;letter&quot;,&quot;baseline&quot;:70.60000000000001,&quot;baselineProportion&quot;:0.9971751412429378,&quot;fontSize&quot;:100}"></path><path d="M387.18939,183.49511l11.69346,-0.25057c0.44547,0 0.6682,0.47331 0.6682,1.41992c0,0.94661 -0.22273,1.41992 -0.6682,1.41992h-3.59156c-1.39208,0 -2.31085,0.2645 -2.75632,0.79349c-0.44547,0.52899 -0.6682,1.54521 -0.6682,3.04865v46.35623h4.84444c8.85362,0 14.97877,-1.16935 18.37544,-3.50804l0.58467,-4.59386c0.11137,-0.44547 0.59859,-0.6682 1.46168,-0.6682c0.86309,0 1.29463,0.16705 1.29463,0.50115l-0.75172,13.44748c0,0.38978 -0.43154,0.58467 -1.29463,0.58467c-0.86309,0 -1.29463,-0.19489 -1.29463,-0.58467v-1.83754h-27.14554l-11.69346,0.16705c-0.44547,0 -0.6682,-0.47331 -0.6682,-1.41992c0,-0.94661 0.22273,-1.41992 0.6682,-1.41992h3.59156c1.39208,0 2.31085,-0.2645 2.75632,-0.79349c0.44547,-0.52899 0.6682,-1.54521 0.6682,-3.04865v-39.59073c0,-4.90012 -0.58467,-7.35018 -1.75402,-7.35018h-4.84444c-0.44547,0 -0.6682,-0.45939 -0.6682,-1.37816c0,-0.91877 0.22273,-1.37816 0.6682,-1.37816c0,0 3.50804,0.02784 10.52412,0.08352z" data-paper-data="{&quot;elementType&quot;:&quot;letter&quot;,&quot;baseline&quot;:67.5,&quot;baselineProportion&quot;:0.9588068181818181,&quot;fontSize&quot;:100}"></path></g></g><g data-paper-data="{&quot;baseline&quot;:70.10000000000001,&quot;elementType&quot;:&quot;row&quot;}"><g data-paper-data="{&quot;baselineProportion&quot;:0.9602739726027396,&quot;fontSize&quot;:100,&quot;baseline&quot;:70.10000000000001,&quot;elementType&quot;:&quot;word&quot;}"><path d="M114.73168,316.83899l-10.94174,0.25057c-0.44547,0 -0.6682,-0.47331 -0.6682,-1.41992c0,-0.94661 0.22273,-1.41992 0.6682,-1.41992h3.17394c1.05798,0 1.8097,-0.22273 2.25517,-0.6682c0.44547,-0.44547 0.64036,-1.15543 0.58467,-2.12988c-0.05568,-0.97446 -0.30626,-4.44073 -0.75172,-10.39883c-1.3364,-16.59358 -2.00459,-26.08756 -2.00459,-28.48194h-0.3341c-0.94661,2.11596 -4.03703,9.1738 -9.27125,21.17352c-5.23422,11.99972 -8.49168,19.33598 -9.7724,22.00877c-0.27842,0.44547 -0.77956,0.6682 -1.50345,0.6682c-0.72388,0 -1.19719,-0.22273 -1.41992,-0.6682c-1.39208,-2.17164 -4.20408,-8.5056 -8.436,-19.00188c-4.23192,-10.49628 -7.4337,-18.80699 -9.60535,-24.93214h-0.3341c-1.39208,19.60047 -2.08812,31.55843 -2.08812,35.87388c0,4.31545 0.69604,6.47317 2.08812,6.47317h3.67509c0.72388,0 1.08582,0.45939 1.08582,1.37816c0,0.91877 -0.36194,1.37816 -1.08582,1.37816l-8.7701,-0.08352l-10.52412,0.25057c-0.50115,0 -0.75172,-0.47331 -0.75172,-1.41992c0,-0.94661 0.25057,-1.41992 0.75172,-1.41992h2.75632c1.50345,0 2.5475,-0.12529 3.13218,-0.37586c0.58467,-0.25057 0.96053,-0.87701 1.12758,-1.87931c0.55683,-3.22962 1.41992,-10.32923 2.58927,-21.29881c1.22503,-11.63778 1.83754,-18.58426 1.83754,-20.83942c0,-2.25517 -0.15313,-3.89782 -0.45939,-4.92796c-0.30626,-1.03014 -0.87701,-1.54521 -1.71226,-1.54521h-4.17624c-0.44547,0 -0.6682,-0.44547 -0.6682,-1.3364c0,-0.89093 0.22273,-1.3364 0.6682,-1.3364l15.78618,0.16705c0.72388,2.45006 3.27139,9.64711 7.64251,21.59115c4.37113,11.94404 7.25273,19.92065 8.64481,23.92984h0.3341c1.55913,-3.89782 3.78646,-9.38261 6.68198,-16.45437c5.624,-13.80942 9.32693,-23.49829 11.10879,-29.06661l14.03216,-0.25057c0.50115,0 0.75172,0.45939 0.75172,1.37816c0,0.91877 -0.25057,1.37816 -0.75172,1.37816h-3.17394c-1.05798,0 -1.75402,0.29234 -2.08812,0.87701c-0.3341,0.58467 -0.50115,1.22503 -0.50115,1.92107c0,0.69604 0.01392,1.406 0.04176,2.12988c0.02784,0.72388 0.55683,6.3618 1.58697,16.91376c1.03014,10.55196 1.87931,18.58426 2.5475,24.09689c0.3341,3.22962 0.97446,4.84444 1.92107,4.84444h5.26206c0.61251,0 0.91877,0.45939 0.91877,1.37816c0,0.91877 -0.30626,1.37816 -0.91877,1.37816z" data-paper-data="{&quot;elementType&quot;:&quot;letter&quot;,&quot;baseline&quot;:67.4,&quot;baselineProportion&quot;:0.9970414201183432,&quot;fontSize&quot;:100}"></path><path d="M141.45959,268.31111c0,0 1.48952,-1.41992 4.46857,-4.25976c2.97905,-2.83984 8.64481,-4.25976 16.99729,-4.25976c8.35247,0 15.50776,2.83984 21.46586,8.51952c5.9581,5.67968 8.93715,12.54263 8.93715,20.58885c0,8.04622 -2.97905,14.90917 -8.93715,20.58885c-5.9581,5.67968 -13.11338,8.51952 -21.46586,8.51952c-8.35247,0 -15.50776,-2.83984 -21.46586,-8.51952c-5.9581,-5.67968 -8.93715,-12.54263 -8.93715,-20.58885c0,-8.04622 2.97905,-14.90917 8.93715,-20.58885M177.24995,270.90038c0,0 -0.92573,-1.21111 -2.7772,-3.63333c-1.85147,-2.42222 -5.70056,-3.63333 -11.5473,-3.63333c-5.84673,0 -10.62156,2.42222 -14.32449,7.26665c-3.70293,4.84444 -5.5544,10.8443 -5.5544,17.99958c0,7.15529 1.85147,13.15515 5.5544,17.99958c3.70293,4.84444 8.47776,7.26665 14.32449,7.26665c5.84673,0 10.62156,-2.42222 14.32449,-7.26665c3.70293,-4.84444 5.5544,-10.8443 5.5544,-17.99958c0,-7.15529 -1.85147,-13.15515 -5.5544,-17.99958z" data-paper-data="{&quot;elementType&quot;:&quot;letter&quot;,&quot;baseline&quot;:68.4,&quot;baselineProportion&quot;:0.981348637015782,&quot;fontSize&quot;:100}"></path><path d="M263.99039,316.83899l-10.94174,0.25057c-0.44547,0 -0.6682,-0.47331 -0.6682,-1.41992c0,-0.94661 0.22273,-1.41992 0.6682,-1.41992h3.17394c1.05798,0 1.8097,-0.22273 2.25517,-0.6682c0.44547,-0.44547 0.64036,-1.15543 0.58467,-2.12988c-0.05568,-0.97446 -0.30626,-4.44073 -0.75172,-10.39883c-1.3364,-16.59358 -2.00459,-26.08756 -2.00459,-28.48194h-0.3341c-0.94661,2.11596 -4.03703,9.1738 -9.27125,21.17352c-5.23422,11.99972 -8.49168,19.33598 -9.7724,22.00877c-0.27842,0.44547 -0.77956,0.6682 -1.50345,0.6682c-0.72388,0 -1.19719,-0.22273 -1.41992,-0.6682c-1.39208,-2.17164 -4.20408,-8.5056 -8.436,-19.00188c-4.23192,-10.49628 -7.4337,-18.80699 -9.60535,-24.93214h-0.3341c-1.39208,19.60047 -2.08812,31.55843 -2.08812,35.87388c0,4.31545 0.69604,6.47317 2.08812,6.47317h3.67509c0.72388,0 1.08582,0.45939 1.08582,1.37816c0,0.91877 -0.36194,1.37816 -1.08582,1.37816l-8.7701,-0.08352l-10.52412,0.25057c-0.50115,0 -0.75172,-0.47331 -0.75172,-1.41992c0,-0.94661 0.25057,-1.41992 0.75172,-1.41992h2.75632c1.50345,0 2.5475,-0.12529 3.13218,-0.37586c0.58467,-0.25057 0.96053,-0.87701 1.12758,-1.87931c0.55683,-3.22962 1.41992,-10.32923 2.58927,-21.29881c1.22503,-11.63778 1.83754,-18.58426 1.83754,-20.83942c0,-2.25517 -0.15313,-3.89782 -0.45939,-4.92796c-0.30626,-1.03014 -0.87701,-1.54521 -1.71226,-1.54521h-4.17624c-0.44547,0 -0.6682,-0.44547 -0.6682,-1.3364c0,-0.89093 0.22273,-1.3364 0.6682,-1.3364l15.78618,0.16705c0.72388,2.45006 3.27139,9.64711 7.64251,21.59115c4.37113,11.94404 7.25273,19.92065 8.64481,23.92984h0.3341c1.55913,-3.89782 3.78646,-9.38261 6.68198,-16.45437c5.624,-13.80942 9.32693,-23.49829 11.10879,-29.06661l14.03216,-0.25057c0.50115,0 0.75172,0.45939 0.75172,1.37816c0,0.91877 -0.25057,1.37816 -0.75172,1.37816h-3.17394c-1.05798,0 -1.75402,0.29234 -2.08812,0.87701c-0.3341,0.58467 -0.50115,1.22503 -0.50115,1.92107c0,0.69604 0.01392,1.406 0.04176,2.12988c0.02784,0.72388 0.55683,6.3618 1.58697,16.91376c1.03014,10.55196 1.87931,18.58426 2.5475,24.09689c0.3341,3.22962 0.97446,4.84444 1.92107,4.84444h5.26206c0.61251,0 0.91877,0.45939 0.91877,1.37816c0,0.91877 -0.30626,1.37816 -0.91877,1.37816z" data-paper-data="{&quot;elementType&quot;:&quot;letter&quot;,&quot;baseline&quot;:67.4,&quot;baselineProportion&quot;:0.9970414201183432,&quot;fontSize&quot;:100}"></path><path d="M283.11756,260.71036l10.52412,0.16705h24.22218v-1.75402c0,-0.50115 0.4037,-0.75172 1.21111,-0.75172c0.80741,0 1.21111,0.25057 1.21111,0.75172c0,5.56832 0.27842,9.80024 0.83525,12.69576c0.11137,0.44547 -0.27842,0.6682 -1.16935,0.6682c-0.89093,0 -1.39208,-0.22273 -1.50345,-0.6682c-0.89093,-3.50804 -1.94891,-5.54047 -3.17394,-6.09731c-2.95121,-1.11366 -7.68428,-1.69834 -14.19921,-1.75402c-1.11366,0.05568 -1.85147,0.36194 -2.21341,0.91877c-0.36194,0.55683 -0.54291,1.53129 -0.54291,2.92337v19.71184c3.45236,-0.05568 6.82119,-0.22273 10.10649,-0.50115c3.28531,-0.27842 5.06717,-0.50115 5.34558,-0.6682l0.83525,-4.92796c0.05568,-0.38978 0.38978,-0.58467 1.0023,-0.58467c1.16935,0 1.69834,0.25057 1.58697,0.75172c-0.27842,2.17164 -0.41762,4.6217 -0.41762,7.35018c0,2.72847 0.13921,5.17853 0.41762,7.35018c0.11137,0.44547 -0.29234,0.6682 -1.21111,0.6682c-0.91877,0 -1.37816,-0.16705 -1.37816,-0.50115l-0.91877,-5.01148c-0.3341,-0.16705 -2.10204,-0.4037 -5.30382,-0.70996c-3.20178,-0.30626 -6.55669,-0.48723 -10.06473,-0.54291v16.03675c0,4.90012 0.58467,7.35018 1.75402,7.35018h4.25976c8.63089,-0.11137 14.53331,-1.28071 17.70725,-3.50804l0.58467,-4.59386c0.11137,-0.44547 0.59859,-0.6682 1.46168,-0.6682c0.86309,0 1.29463,0.16705 1.29463,0.50115l-0.75172,13.44748c0,0.38978 -0.43154,0.58467 -1.29463,0.58467c-0.86309,0 -1.29463,-0.19489 -1.29463,-0.58467v-1.83754h-20.63061l-18.70954,0.16705c-0.44547,0 -0.6682,-0.47331 -0.6682,-1.41992c0,-0.94661 0.22273,-1.41992 0.6682,-1.41992h3.59156c1.39208,0 2.31085,-0.2645 2.75632,-0.79349c0.44547,-0.52899 0.6682,-1.54521 0.6682,-3.04865v-39.59073c0,-4.90012 -0.58467,-7.35018 -1.75402,-7.35018h-4.84444c-0.44547,0 -0.6682,-0.45939 -0.6682,-1.37816c0,-0.91877 0.22273,-1.37816 0.6682,-1.37816z" data-paper-data="{&quot;elementType&quot;:&quot;letter&quot;,&quot;baseline&quot;:70.10000000000001,&quot;baselineProportion&quot;:0.9602739726027396,&quot;fontSize&quot;:100}"></path><path d="M384.5166,260.87741l9.85592,-0.25057c0.50115,0 0.75172,0.45939 0.75172,1.37816c0,0.91877 -0.25057,1.37816 -0.75172,1.37816h-3.92566c-1.11366,0 -1.83754,0.25057 -2.17164,0.75172c-1.28071,1.89323 -1.97675,19.82321 -2.08812,53.78994c-0.11137,0.38978 -0.55683,0.58467 -1.3364,0.58467c-0.77956,0 -1.36424,-0.19489 -1.75402,-0.58467c-16.25948,-19.32206 -29.06661,-34.66277 -38.42138,-46.02213h-0.3341c0.22273,20.26867 0.38978,32.37976 0.50115,36.33326c0.11137,3.9535 0.69604,5.93026 1.75402,5.93026h4.59386c0.50115,0 0.75172,0.45939 0.75172,1.37816c0,0.91877 -0.25057,1.37816 -0.75172,1.37816l-8.85362,-0.08352l-9.93944,0.25057c-0.38978,0 -0.58467,-0.47331 -0.58467,-1.41992c0,-0.94661 0.19489,-1.41992 0.58467,-1.41992h2.75632c1.28071,0 2.19948,-0.15313 2.75632,-0.45939c0.55683,-0.30626 0.86309,-0.90485 0.91877,-1.79578c1.11366,-12.52871 1.67049,-27.50748 1.67049,-44.93631l-0.58467,-0.6682c-1.11366,-1.28071 -2.10204,-2.10204 -2.96513,-2.46398c-0.86309,-0.36194 -2.46398,-0.54291 -4.80267,-0.54291c-0.3341,0 -0.50115,-0.44547 -0.50115,-1.3364c0,-0.89093 0.16705,-1.3364 0.50115,-1.3364l15.11798,0.16705c19.82321,24.83469 31.34962,39.42368 34.57924,43.76697h0.3341c-0.3341,-22.10622 -0.61251,-34.49572 -0.83525,-37.16851c-0.22273,-2.67279 -0.86309,-4.00919 -1.92107,-4.00919h-4.00919c-0.50115,0 -0.75172,-0.45939 -0.75172,-1.37816c0,-0.91877 0.25057,-1.37816 0.75172,-1.37816z" data-paper-data="{&quot;elementType&quot;:&quot;letter&quot;,&quot;baseline&quot;:67.4,&quot;baselineProportion&quot;:0.9725829725829725,&quot;fontSize&quot;:100}"></path><path d="M450,271.90267c0,0.44547 -0.44547,0.6682 -1.3364,0.6682c-0.89093,0 -1.36424,-0.25057 -1.41992,-0.75172c-0.6682,-3.61941 -1.8097,-5.67968 -3.42451,-6.18083c-2.83984,-0.72388 -7.48939,-1.1415 -13.94863,-1.25287c-1.11366,0.05568 -1.86539,0.36194 -2.25517,0.91877c-0.38978,0.55683 -0.58467,1.53129 -0.58467,2.92337v38.58843c0,4.90012 0.58467,7.35018 1.75402,7.35018h4.84444c0.44547,0 0.6682,0.45939 0.6682,1.37816c0,0.91877 -0.22273,1.37816 -0.6682,1.37816l-10.52412,-0.08352l-11.69346,0.25057c-0.44547,0 -0.6682,-0.47331 -0.6682,-1.41992c0,-0.94661 0.22273,-1.41992 0.6682,-1.41992h3.59156c1.39208,0 2.31085,-0.2645 2.75632,-0.79349c0.44547,-0.52899 0.6682,-1.54521 0.6682,-3.04865v-38.67196c0,-4.90012 -0.55683,-7.35018 -1.67049,-7.35018h-1.75402c-5.51263,0 -9.96729,0.41762 -13.36396,1.25287c-1.61481,0.50115 -2.75632,2.56143 -3.42451,6.18083c-0.05568,0.50115 -0.52899,0.75172 -1.41992,0.75172c-0.89093,0 -1.3364,-0.22273 -1.3364,-0.6682l0.6682,-12.77929c0,-0.50115 0.44547,-0.75172 1.3364,-0.75172c0.89093,0 1.3364,0.25057 1.3364,0.75172v1.58697c3.78646,0.11137 7.26665,0.16705 10.44059,0.16705h24.9739c4.51034,0 8.65873,-0.05568 12.44519,-0.16705v-1.58697c0,-0.50115 0.44547,-0.75172 1.3364,-0.75172c0.89093,0 1.3364,0.25057 1.3364,0.75172z" data-paper-data="{&quot;elementType&quot;:&quot;letter&quot;,&quot;baseline&quot;:70.10000000000001,&quot;baselineProportion&quot;:0.9971550497866287,&quot;fontSize&quot;:100}"></path></g></g></g></g></g></svg>